<svg xmlns="http://www.w3.org/2000/svg" viewBox="0 0 64 64">
  <defs>
    <linearGradient id="g" x1="0" y1="0" x2="1" y2="1">
      <stop offset="0" stop-color="#FF3D6B"/>
      <stop offset="1" stop-color="#FFD93D"/>
    </linearGradient>
  </defs>
  <!-- fundo -->
  <rect width="64" height="64" rx="15" fill="url(#g)"/>
  <!-- confetes -->
  <circle cx="14" cy="12" r="2.6" fill="#FFF8F0" opacity=".95"/>
  <rect x="29" y="7" width="5" height="5" rx="1.2" fill="#FFF8F0" opacity=".9" transform="rotate(22 31.5 9.5)"/>
  <circle cx="50" cy="13" r="2.2" fill="#FFF8F0" opacity=".95"/>
  <path d="M40 5.5 l1.1 2.3 2.4 .3 -1.8 1.7 .5 2.4 -2.2-1.2 -2.2 1.2 .5-2.4 -1.8-1.7 2.4-.3 z" fill="#FFF8F0" opacity=".85"/>
  <!-- envelope -->
  <rect x="10" y="22" width="44" height="31" rx="5" fill="#FFF8F0"/>
  <path d="M12 26 L32 42 L52 26" fill="none" stroke="#FF3D6B" stroke-width="3.4" stroke-linecap="round" stroke-linejoin="round"/>
  <!-- coração (selo) -->
  <path d="M32 50.5 c-4.6-3.1 -7-5.3 -7-8 a3.8 3.8 0 0 1 7-2 a3.8 3.8 0 0 1 7 2 c0 2.7 -2.4 4.9 -7 8 z" fill="#FF3D6B"/>
</svg>
